<?xml version="1.0" standalone="no"?><!DOCTYPE svg PUBLIC "-//W3C//DTD SVG 1.1//EN" "http://www.w3.org/Graphics/SVG/1.1/DTD/svg11.dtd"><svg t="1774281308801" class="icon" viewBox="0 0 1024 1024" version="1.1" xmlns="http://www.w3.org/2000/svg" p-id="6508" xmlns:xlink="http://www.w3.org/1999/xlink" width="200" height="200"><path d="M890.376351 488.64146a35.35779 35.35779 0 1 0-67.67577 14.335104c2.271858 13.215174 5.311668 36.63771 5.311668 71.867508 0 218.354353-160.117993 378.536341-378.600337 378.536342-218.482345 0-378.600337-160.181989-378.600338-378.536342S230.929567 196.339729 449.411912 196.339729c34.909818 0 39.67752-1.5999 70.139616 4.7997l0.127992-0.767952c0.95994 0.095994 1.91988 0.31998 2.911818 0.31998 18.654834 0 33.821886-15.19905 33.821886-33.821886 0-16.062996-11.167302-29.406162-26.110368-32.861946l0.31998-2.047872c-38.3976-6.847572-40.125492-6.3996-81.210924-6.399601C201.235423 125.560152 0 326.667583 0 574.748078c0 248.176489 201.235423 449.28392 449.411912 449.28392S898.823824 822.924567 898.823824 574.748078c0-38.941566-3.167802-57.27642-8.575465-85.018686 0-0.31998 0.127992-0.735954 0.127992-1.087932M350.378101 890.344353c0.31998 0.223986 0.767952 0.223986 1.087932 0.447972a24.414474 24.414474 0 0 0 3.807762 0.767952c1.727892 0.31998 3.231798 1.087932 5.087682 1.087932 13.663146 0 22.430598-11.51928 24.734455-25.182426 2.23986-14.175114-13.43916-22.87857-13.439161-22.87857A327.243547 327.243547 0 0 1 235.505281 761.232423s-13.567152-12.7992-23.230548-12.7992a24.95844 24.95844 0 0 0-14.847072 44.7972l-0.223986 0.095994a376.872445 376.872445 0 0 0 153.206424 97.017936m94.106119-460.035247c1.311918 0.127992 2.495844 0.447972 3.903756 0.447972a35.261796 35.261796 0 1 0 0.95994-70.587589l0.031998-0.95994a215.666521 215.666521 0 0 0 0 431.301044 215.666521 215.666521 0 0 0 215.666521-213.714643c0.095994-1.183926 0.31998-2.271858 0.31998-3.583776a35.35779 35.35779 0 0 0-70.715581 0c0 0.543966 0.127992 1.087932 0.127992 1.631898h-0.543966c0 89.338416-55.51653 144.854947-144.854946 144.854947s-144.854947-55.51653-144.854947-144.854947c0-87.706518 53.660646-142.455097 139.959253-144.534966M1023.936004 215.346541l-198.067621-16.894944L808.909443 0l-70.779576 71.451534v0.223986L594.682832 198.387601h-0.31998v176.756952l-197.875632 180.724705 37.949628 54.748578 214.706581-197.651646h176.692956V412.774202l0.223986 0.223986 143.671021-143.543029-0.223986-0.223986h0.223986L1023.936004 215.346541m-235.505281 143.767014h-123.256296V235.921255l89.882382-89.882382v123.288294h123.256296l-89.882382 89.75439M173.781139 680.437473a24.47847 24.47847 0 0 0-17.662896-7.67952 24.95844 24.95844 0 0 0-24.702456 25.150428c0 7.583526 12.351228 25.054434 14.303106 28.15824 0.223986 0.671958 0.767952 1.11993 1.087932 1.75989 2.271858 3.67977 8.63946 9.43941 8.63946 9.43941a24.062496 24.062496 0 0 0 13.11918 4.31973 24.95844 24.95844 0 0 0 24.734454-25.150428 27.134304 27.134304 0 0 0-1.503906-7.807512l-18.014874-28.15824" fill="#183F8F" p-id="6509"></path></svg>