<svg t="1773930052321" class="icon" viewBox="0 0 1024 1024" version="1.1" xmlns="http://www.w3.org/2000/svg" p-id="10311" width="200" height="200"><path d="M939.072 248.576c-39.296 51.797333-87.808 77.397333-156.309333 68.693333-21.802667-2.794667-50.794667 15.296-69.696 31.701334-81.493333 70.293333-160.490667 143.488-244.8 219.605333 35.690667 33.898667 68.693333 63.893333 100.202666 95.573333 29.696 29.909333 30.08 51.413333 0.896 81.408-49.6 50.901333-99.2 102.016-151.189333 150.4-58.816 54.72-132.309333 45.610667-202.304 34.709334-45.610667-7.189333-89.301333-26.709333-133.909333-40.597334-12.8-66.602667-29.589333-132.693333-37.397334-199.808-6.805333-58.986667 16.405333-109.504 62.293334-150.485333 41.216-36.8 78.613333-77.717333 117.909333-116.693333 43.008-42.624 59.392-42.709333 101.504-1.109334 27.093333 26.88 54.186667 53.802667 81.386667 80.597334 1.813333 1.706667 4.416 2.602667 10.197333 5.888 50.602667-55.488 102.912-110.784 152.704-168.192 33.002667-38.101333 62.805333-78.997333 93.504-119.104 3.413333-4.394667 5.205333-12.288 4.010667-17.706667-16.106667-68.992 12.586667-119.381333 65.386666-160.192h7.893334l197.802666 197.504c-0.085333 2.496-0.085333 5.205333-0.085333 7.808z m-83.904 0.597333l-123.392-121.6c-21.717333 40.192-17.109333 81.706667 15.893333 110.890667 34.197333 30.208 74.794667 32.512 107.498667 10.709333zM336.469333 614.72l-170.666666 181.333333a21.333333 21.333333 0 0 0 31.061333 29.226667l170.666667-181.333333a21.333333 21.333333 0 0 0-31.061334-29.226667z" fill="#A3ABB5" p-id="10312"></path></svg>