<?xml version="1.0" standalone="no"?><!DOCTYPE svg PUBLIC "-//W3C//DTD SVG 1.1//EN" "http://www.w3.org/Graphics/SVG/1.1/DTD/svg11.dtd"><svg t="1773717861060" class="icon" viewBox="0 0 1024 1024" version="1.1" xmlns="http://www.w3.org/2000/svg" p-id="6690" xmlns:xlink="http://www.w3.org/1999/xlink" width="200" height="200"><path d="M160.019692 64h704a95.980308 95.980308 0 0 1 95.980308 96.019692v704a96.019692 96.019692 0 0 1-96.019692 95.980308H160.019692a96.019692 96.019692 0 0 1-95.980307-96.019692V160.019692a95.980308 95.980308 0 0 1 96.019692-95.980307z m519.286154 288.019692V128H614.4v224.019692h-101.809231a127.606154 127.606154 0 0 0-33.792-58.210461c-16.305231-16.068923-36.667077-27.569231-58.958769-33.319385V128H355.012923v132.489846a130.166154 130.166154 0 0 0-58.958769 33.319385 127.606154 127.606154 0 0 0-33.792 58.210461H128v63.960616h134.262154a127.606154 127.606154 0 0 0 33.792 58.210461c16.305231 16.068923 36.627692 27.569231 58.958769 33.319385v100.509538H128v63.960616h227.012923v224.019692h64.866462v-224.019692h84.952615c6.144 26.387692 19.692308 50.530462 39.030154 69.632a146.510769 146.510769 0 0 0 70.577231 38.557538v115.830154h64.866461v-115.830154a146.510769 146.510769 0 0 0 70.537846-38.557538 143.438769 143.438769 0 0 0 39.069539-69.592616h112.206769v-64h-112.206769a143.438769 143.438769 0 0 0-39.030154-69.632 146.510769 146.510769 0 0 0-70.577231-38.557538v-83.849846h221.814154V352.019692h-221.814154z m-259.426461 155.490462a130.087385 130.087385 0 0 0 58.958769-33.319385 127.606154 127.606154 0 0 0 33.792-58.171077H614.4v83.810462a146.510769 146.510769 0 0 0-70.577231 38.557538 143.478154 143.478154 0 0 0-39.030154 69.632h-84.952615v-100.509538z m226.973538 212.48c-16.029538 0-31.704615-4.686769-45.016615-13.469539a80.226462 80.226462 0 0 1-29.853539-35.918769 79.044923 79.044923 0 0 1 17.565539-87.158154 82.038154 82.038154 0 0 1 88.339692-17.32923c14.808615 6.025846 27.490462 16.305231 36.391385 29.459692a79.241846 79.241846 0 0 1-10.082462 100.982154c-15.202462 15.005538-35.84 23.433846-57.344 23.433846z" fill="#000000" p-id="6691"></path></svg>